# xmcd
#
# Track frame offsets: 
#        150
#        19063
#        37514
#        50942
#        73297
#        94109
#        110038
#        128889
#        146519
#        163373
#        187085
#        204702
#
# Disc length: 3168 seconds
#
# Revision: 0
# Processed by: cddbd v1.5.2PL0 Copyright (c) Steve Scherf et al.
# Submitted via: ExactAudioCopyFreeDBPlugin 1.0
#
DISCID=b90c5e0c
DTITLE=Third Coast Blues Collective - Music Friends
DYEAR=2015
DGENRE=Blues
TTITLE0=I Beleive
TTITLE1=Voodoo Rain
TTITLE2=Farmer John
TTITLE3=Do Your Duty Judy
TTITLE4=Directly From My Heart To You
TTITLE5=Im Going Home
TTITLE6=Comeuppance
TTITLE7=Song Of Everything
TTITLE8=Sho Nuff
TTITLE9=Spanish Wine
TTITLE10=Boogie Sol Hoopli
TTITLE11=Recession Blues
EXTD=
EXTT0=
EXTT1=
EXTT2=
EXTT3=
EXTT4=
EXTT5=
EXTT6=
EXTT7=
EXTT8=
EXTT9=
EXTT10=
EXTT11=
PLAYORDER=
